<svg viewBox="0 0 100 100" fill="none" xmlns="http://www.w3.org/2000/svg">
  <rect width="100" height="100" fill="#2E3A2F"/>
  <circle cx="50" cy="50" r="38" stroke="#DCC8A3" stroke-width="2.5"/>
  <path d="M26,56 C21,43 26,27 40,20 C55,12 73,19 80,36 C86,51 81,69 68,77 C55,85 37,81 29,69 C26,64 26,60 26,56Z" stroke="#DCC8A3" stroke-width="2" fill="none"/>
  <path d="M34,53 C30,43 34,30 45,25 C57,19 71,25 76,38 C80,50 76,64 66,70 C56,76 41,72 36,61 C34,57 34,55 34,53Z" stroke="#DCC8A3" stroke-width="1.5" fill="none"/>
  <path d="M43,51 C40,44 43,35 51,32 C59,28 68,33 71,42 C74,51 70,61 63,65 C56,69 47,65 44,57 C43,54 43,52 43,51Z" stroke="#DCC8A3" stroke-width="1.5" fill="none"/>
</svg>
